<svg fill="#000000" height="800px" width="800px" version="1.1" id="Layer_1" xmlns="http://www.w3.org/2000/svg" xmlns:xlink="http://www.w3.org/1999/xlink" 
	 viewBox="0 0 512 512" xml:space="preserve">
<g>
	<g>
		<path d="M430.545,46.545h-81.455V34.909C349.091,15.663,333.428,0,314.182,0H197.818c-19.247,0-34.909,15.663-34.909,34.909
			v11.636H81.455c-19.247,0-34.909,15.663-34.909,34.909v23.273c0,19.247,15.663,34.909,34.909,34.909h349.091
			c19.247,0,34.909-15.663,34.909-34.909V81.455C465.455,62.208,449.792,46.545,430.545,46.545z M442.182,104.727
			c0,6.423-5.225,11.636-11.636,11.636H81.455c-6.412,0-11.636-5.213-11.636-11.636V81.455c0-6.423,5.225-11.636,11.636-11.636
			h209.455c6.423,0,11.636-5.201,11.636-11.636c0-6.435-5.213-11.636-11.636-11.636H186.182V34.909
			c0-6.423,5.225-11.636,11.636-11.636h116.364c6.412,0,11.636,5.213,11.636,11.636v23.273c0,6.435,5.213,11.636,11.636,11.636
			h93.091c6.412,0,11.636,5.213,11.636,11.636V104.727z"/>
	</g>
</g>
<g>
	<g>
		<path d="M256,232.727c-6.423,0-11.636,5.201-11.636,11.636v186.182c0,6.435,5.213,11.636,11.636,11.636
			c6.423,0,11.636-5.201,11.636-11.636V244.364C267.636,237.929,262.423,232.727,256,232.727z"/>
	</g>
</g>
<g>
	<g>
		<path d="M337.455,232.727c-6.423,0-11.636,5.201-11.636,11.636v63.43c0,34.502-2.874,69.225-8.541,103.238l-2.932,17.606
			c-1.059,6.342,3.223,12.335,9.565,13.382c0.64,0.116,1.292,0.163,1.92,0.163c5.585,0,10.519-4.038,11.462-9.728l2.932-17.606
			c5.876-35.258,8.867-71.284,8.867-107.055v-63.43C349.091,237.929,343.878,232.727,337.455,232.727z"/>
	</g>
</g>
<g>
	<g>
		<path d="M197.655,428.637l-2.932-17.606c-5.667-34.013-8.541-68.736-8.541-103.238v-63.43c0-6.435-5.213-11.636-11.636-11.636
			s-11.636,5.201-11.636,11.636v63.43c0,35.77,2.979,71.796,8.867,107.055l2.932,17.606c0.943,5.69,5.876,9.728,11.462,9.728
			c0.628,0,1.28-0.047,1.92-0.163C194.432,440.96,198.714,434.979,197.655,428.637z"/>
	</g>
</g>
<g>
	<g>
		<path d="M430.545,162.909c-6.423,0-11.636,5.201-11.636,11.636v92.02c0,61.847-5.155,124.148-15.325,185.135l-4.55,27.311
			c-0.943,5.62-5.772,9.716-11.473,9.716H124.439c-5.713,0-10.543-4.096-11.473-9.716l-4.55-27.311
			c-10.17-60.986-15.325-123.276-15.325-185.135v-80.384H384c6.423,0,11.636-5.201,11.636-11.636
			c0-6.435-5.213-11.636-11.636-11.636H81.455c-6.423,0-11.636,5.201-11.636,11.636v92.02c0,63.139,5.26,126.708,15.639,188.951
			l4.55,27.311C92.835,499.735,107.311,512,124.439,512h263.11c17.14,0,31.616-12.265,34.432-29.172l4.55-27.311
			c10.391-62.243,15.651-125.812,15.651-188.951v-92.02C442.182,168.111,436.969,162.909,430.545,162.909z"/>
	</g>
</g>
</svg>